HIERARCHY
ROOT root
{
	OFFSET 0.000000 0.000000 0.000000
	CHANNELS 6 Xposition Yposition Zposition Zrotation Yrotation Xrotation
	JOINT lhip
	{
		OFFSET 0.058581 -0.082280 -0.017664
		CHANNELS 3 Zrotation Yrotation Xrotation
		JOINT lknee
		{
			OFFSET 0.043451 -0.386469 0.008037
			CHANNELS 3 Zrotation Yrotation Xrotation
			JOINT lankle
			{
				OFFSET -0.014790 -0.426874 -0.037428
				CHANNELS 3 Zrotation Yrotation Xrotation
				JOINT ltoe
				{
					OFFSET 0.041054 -0.060286 0.122042
					CHANNELS 3 Zrotation Yrotation Xrotation
					End Site
					{
						OFFSET 0.000000 0.000000 0.000000
					}
				}
			}
		}
	}
	JOINT rhip
	{
		OFFSET -0.060310 -0.090513 -0.013543
		CHANNELS 3 Zrotation Yrotation Xrotation
		JOINT rknee
		{
			OFFSET -0.043257 -0.383688 -0.004843
			CHANNELS 3 Zrotation Yrotation Xrotation
			JOINT rankle
			{
				OFFSET 0.019056 -0.420046 -0.034562
				CHANNELS 3 Zrotation Yrotation Xrotation
				JOINT rtoe
				{
					OFFSET -0.034840 -0.062106 0.130323
					CHANNELS 3 Zrotation Yrotation Xrotation
					End Site
					{
						OFFSET 0.000000 0.000000 0.000000
					}
				}
			}
		}
	}
	JOINT lowerback
	{
		OFFSET 0.004439 0.124404 -0.038385
		CHANNELS 3 Zrotation Yrotation Xrotation
		JOINT upperback
		{
			OFFSET 0.004488 0.137956 0.026820
			CHANNELS 3 Zrotation Yrotation Xrotation
			JOINT chest
			{
				OFFSET -0.002265 0.056032 0.002855
				CHANNELS 3 Zrotation Yrotation Xrotation
				JOINT lowerneck
				{
					OFFSET -0.013390 0.211636 -0.033468
					CHANNELS 3 Zrotation Yrotation Xrotation
					JOINT upperneck
					{
						OFFSET 0.010113 0.088937 0.050410
						CHANNELS 3 Zrotation Yrotation Xrotation
						End Site
						{
							OFFSET 0.000000 0.000000 0.000000
						}
					}
				}
				JOINT lclavicle
				{
					OFFSET 0.071702 0.114000 -0.018898
					CHANNELS 3 Zrotation Yrotation Xrotation
					JOINT lshoulder
					{
						OFFSET 0.122921 0.045205 -0.019046
						CHANNELS 3 Zrotation Yrotation Xrotation
						JOINT lelbow
						{
							OFFSET 0.255332 -0.015649 -0.022946
							CHANNELS 3 Zrotation Yrotation Xrotation
							JOINT lwrist
							{
								OFFSET 0.265709 0.012698 -0.007375
								CHANNELS 3 Zrotation Yrotation Xrotation
								End Site
								{
									OFFSET 0.000000 0.000000 0.000000
								}
							}
						}
					}
				}
				JOINT rclavicle
				{
					OFFSET -0.082954 0.112472 -0.023707
					CHANNELS 3 Zrotation Yrotation Xrotation
					JOINT rshoulder
					{
						OFFSET -0.113228 0.046853 -0.008472
						CHANNELS 3 Zrotation Yrotation Xrotation
						JOINT relbow
						{
							OFFSET -0.260127 -0.014369 -0.031269
							CHANNELS 3 Zrotation Yrotation Xrotation
							JOINT rwrist
							{
								OFFSET -0.269108 0.006794 -0.006027
								CHANNELS 3 Zrotation Yrotation Xrotation
								End Site
								{
									OFFSET 0.000000 0.000000 0.000000
								}
							}
						}
					}
				}
			}
		}
	}
}
MOTION
Frames: 10
Frame Time: 0.033333
0.350853 0.174486 0.985712 86.209979 -0.110270 92.179600 7.358891 5.922445 4.775601 -3.942169 2.142402 -5.340922 -0.877369 9.386696 -3.141353 0.000000 -0.000000 0.000000 -8.496840 -2.417034 -1.384779 2.683442 -1.657387 0.134884 5.195121 -2.968660 -4.832824 0.000000 -0.000000 0.000000 -4.277925 2.663607 -9.886006 1.878255 -1.732555 14.095777 -0.432685 0.440541 -5.171043 4.327305 4.578282 7.756349 5.257533 -2.511401 -1.829721 -25.924701 -5.233567 1.775489 -56.264086 -7.648614 19.360862 -0.888174 -18.359352 10.593005 -5.718997 -15.458838 11.008496 28.753892 7.286704 7.491712 55.348675 5.034323 16.009625 -5.407407 24.810565 1.142672 -0.597974 12.245354 1.834439 
0.350723 0.174416 0.985621 86.228250 -0.075059 92.100012 7.410541 5.920386 4.852649 -3.932640 2.109023 -5.343404 -0.802498 9.326594 -3.122987 0.000000 -0.000000 0.000000 -8.446971 -2.452469 -1.290231 2.670614 -1.588655 0.114790 5.194869 -2.992942 -4.846419 0.000000 -0.000000 0.000000 -4.270467 2.630149 -9.760855 1.904195 -1.709404 13.864094 -0.368482 0.463564 -4.973258 4.319008 4.571349 7.505048 5.134676 -2.473889 -1.504934 -25.887373 -5.207919 1.759833 -56.402922 -7.700088 19.242857 -0.876875 -18.587772 10.809725 -5.978564 -14.813077 10.972034 28.782668 6.931655 7.325873 55.335064 5.190351 15.904420 -5.573924 24.891950 1.336969 -0.022149 11.958112 2.104142 
0.350656 0.174298 0.985603 86.219871 -0.080226 92.074794 7.416074 5.925064 4.867777 -3.941674 2.119206 -5.337536 -0.789231 9.302864 -3.108085 0.000000 -0.000000 0.000000 -8.442675 -2.452670 -1.277870 2.658988 -1.574559 0.114546 5.208615 -2.996166 -4.838952 0.000000 -0.000000 0.000000 -4.273043 2.617278 -9.767939 1.898606 -1.690164 13.830166 -0.368020 0.487277 -4.913235 4.351101 4.583770 7.417899 5.105027 -2.488305 -1.396993 -25.867314 -5.255017 1.787718 -56.449872 -7.699821 19.218218 -0.886423 -18.677231 10.775435 -6.037944 -14.577991 10.852487 28.789506 6.901605 7.344229 55.332844 5.265216 15.894273 -5.614950 24.860566 1.307238 0.167232 11.873695 2.131870 
0.350679 0.174178 0.985664 86.193818 -0.098789 92.050751 7.383780 5.917173 4.916468 -3.918728 2.118531 -5.383994 -0.857994 9.342786 -3.134749 0.000000 -0.000000 0.000000 -8.458604 -2.402272 -1.252081 2.651582 -1.599853 0.093128 5.242255 -3.024850 -4.827290 0.000000 -0.000000 0.000000 -4.189442 2.572549 -9.779244 1.789404 -1.622175 13.787226 -0.401155 0.540908 -4.878307 4.425859 4.574425 7.490109 5.104342 -2.536648 -1.460245 -25.724352 -5.347860 1.789912 -56.635982 -7.526519 19.321394 -0.780598 -18.830381 10.634107 -6.070331 -14.552260 10.836308 28.464814 7.395414 7.627539 55.800885 5.102442 16.110256 -5.790923 24.796732 0.732822 -0.108487 11.949798 1.856401 
0.350633 0.174161 0.985670 86.189234 -0.096422 92.032077 7.387965 5.909417 4.954619 -3.919280 2.110728 -5.423547 -0.845742 9.339875 -3.127275 0.000000 -0.000000 0.000000 -8.463054 -2.398170 -1.245640 2.662059 -1.605059 0.112488 5.242775 -3.006223 -4.830220 0.000000 -0.000000 0.000000 -4.187536 2.562665 -9.775461 1.799255 -1.617524 13.743248 -0.387931 0.528310 -4.819738 4.403374 4.573952 7.475974 5.080866 -2.555611 -1.471985 -25.754568 -5.305441 1.787859 -56.634598 -7.542462 19.284313 -0.772435 -18.831959 10.699783 -6.076874 -14.604725 10.820012 28.505041 7.317120 7.595151 55.760010 5.136779 16.079941 -5.811777 24.825834 0.844129 -0.081224 11.928891 1.883019 
0.350465 0.174157 0.985696 86.183985 -0.092159 91.969775 7.405348 5.918895 5.020722 -3.934827 2.129492 -5.446672 -0.804157 9.325327 -3.093977 0.000000 -0.000000 0.000000 -8.457399 -2.412050 -1.209275 2.654740 -1.593768 0.143619 5.248766 -2.976959 -4.827900 0.000000 -0.000000 0.000000 -4.184471 2.574312 -9.735538 1.834162 -1.618722 13.687320 -0.385687 0.503579 -4.734855 4.356521 4.570034 7.450894 5.067535 -2.540907 -1.461657 -25.818119 -5.222257 1.793490 -56.581149 -7.623899 19.201645 -0.843074 -18.818683 10.876353 -6.103320 -14.659238 10.776655 28.647306 7.016115 7.388686 55.624113 5.226862 15.961054 -5.822456 24.853386 1.169558 0.121751 11.845650 1.985804 
0.350320 0.174116 0.985711 86.186628 -0.091766 91.959907 7.406236 5.921947 5.023104 -3.931544 2.121933 -5.462480 -0.804817 9.328029 -3.050956 0.000000 -0.000000 0.000000 -8.454528 -2.429936 -1.219108 2.652846 -1.578304 0.166710 5.229825 -2.968813 -4.828528 0.000000 -0.000000 0.000000 -4.170476 2.583383 -9.716201 1.825389 -1.604777 13.610428 -0.401627 0.513543 -4.721754 4.359509 4.505935 7.395010 5.084054 -2.522457 -1.357476 -25.816834 -5.199610 1.814527 -56.603043 -7.638317 19.202799 -0.819452 -18.768947 10.939467 -6.120945 -14.650909 10.716025 28.636518 6.918681 7.358711 55.652469 5.234685 15.947116 -5.774524 24.796607 1.300652 0.218168 11.776888 1.917635 
0.350180 0.174119 0.985761 86.167598 -0.104968 91.948825 7.370038 5.911217 5.021635 -3.898607 2.087113 -5.456081 -0.791248 9.348652 -3.060670 0.000000 -0.000000 0.000000 -8.464826 -2.427105 -1.227398 2.648033 -1.567385 0.163977 5.233961 -2.972351 -4.825317 0.000000 -0.000000 0.000000 -4.114998 2.595829 -9.716293 1.779629 -1.589465 13.655422 -0.435112 0.542245 -4.788172 4.379853 4.467496 7.423926 5.111951 -2.505224 -1.416422 -25.778795 -5.267214 1.800962 -56.631142 -7.548311 19.259031 -0.826324 -18.790846 10.799719 -6.037964 -14.654682 10.729728 28.458686 7.204618 7.530479 55.869048 5.130421 16.038258 -5.801631 24.711616 0.956160 0.005754 11.914265 1.747870 
0.350027 0.174127 0.985800 86.161475 -0.104787 91.907666 7.368093 5.909286 5.053847 -3.885389 2.084973 -5.454277 -0.797990 9.354640 -3.093432 0.000000 -0.000000 0.000000 -8.468912 -2.419912 -1.206371 2.650251 -1.571919 0.176692 5.232043 -2.961594 -4.833592 0.000000 -0.000000 0.000000 -4.078191 2.598040 -9.664798 1.754690 -1.581773 13.615075 -0.447610 0.535054 -4.794946 4.402196 4.478397 7.462419 5.122726 -2.501246 -1.439173 -25.734471 -5.286829 1.803346 -56.691026 -7.504954 19.278166 -0.799852 -18.766755 10.733481 -6.032524 -14.656617 10.760709 28.379771 7.356741 7.619535 55.995883 5.045448 16.084687 -5.870607 24.682004 0.818718 -0.114786 11.992584 1.762323 
0.349873 0.174124 0.985843 86.169231 -0.095358 91.866763 7.381060 5.896598 5.081653 -3.889252 2.089854 -5.446751 -0.807324 9.355578 -3.078714 0.000000 -0.000000 0.000000 -8.457939 -2.397054 -1.176428 2.650753 -1.578359 0.180084 5.238523 -2.975556 -4.846800 0.000000 -0.000000 0.000000 -4.053750 2.568868 -9.639861 1.750156 -1.584542 13.614004 -0.451505 0.536005 -4.798864 4.424557 4.458401 7.442623 5.120491 -2.557857 -1.403942 -25.707980 -5.258648 1.818399 -56.742055 -7.535475 19.266739 -0.771809 -18.735128 10.739997 -6.079462 -14.662752 10.783321 28.365075 7.353706 7.623297 56.036506 5.030597 16.098055 -5.901966 24.669410 0.816451 -0.125209 12.024103 1.778039 
